<svg xmlns="http://www.w3.org/2000/svg" xmlns:xlink="http://www.w3.org/1999/xlink" viewBox="0 0 357.55 160.36"><defs><style>.cls-1,.cls-2{fill:#5f2c82;stroke:#662d91;stroke-linejoin:round;}.cls-1{stroke-width:3px;}.cls-3{fill:url(#Degradado_sin_nombre_23);}</style><linearGradient id="Degradado_sin_nombre_23" x1="81.61" y1="160.36" x2="81.61" gradientUnits="userSpaceOnUse"><stop offset="0" stop-color="#ff3cac"/><stop offset="0.13" stop-color="#cf41a8"/><stop offset="0.24" stop-color="#a946a4"/><stop offset="0.35" stop-color="#8e49a2"/><stop offset="0.44" stop-color="#7e4aa1"/><stop offset="0.51" stop-color="#784ba0"/><stop offset="0.59" stop-color="#6659a9"/><stop offset="0.76" stop-color="#4671b8"/><stop offset="0.9" stop-color="#3281c2"/><stop offset="1" stop-color="#2b86c5"/></linearGradient></defs><g id="Capa_2" data-name="Capa 2"><g id="Capa_1-2" data-name="Capa 1"><path class="cls-1" d="M196.85,81.14V79.59h15V94.06A19.56,19.56,0,0,1,201.28,97h-.59a19.45,19.45,0,0,1-10.25-2.88A21.15,21.15,0,0,1,183,86.45,20.73,20.73,0,0,1,201,55.58a21.16,21.16,0,0,1,10.83,3v2A18.9,18.9,0,0,0,201,57.13a19.17,19.17,0,0,0-19,19.13,18.57,18.57,0,0,0,5.6,13.53A18.26,18.26,0,0,0,201,95.44a20.92,20.92,0,0,0,9.07-2.24V81.14Z"/><path class="cls-1" d="M245.73,56.38h1.76v40h-1.76Z"/><path class="cls-1" d="M295.23,58.51a9,9,0,0,0-4.73-1.28,6.52,6.52,0,0,0-4.45,1.63,5.64,5.64,0,0,0-1.84,4.46v.26c0,2.25,1.24,4.29,3.73,6.14A37.68,37.68,0,0,0,291.55,72q2,1.15,4,2.46a29.85,29.85,0,0,1,3.63,2.77,11.9,11.9,0,0,1,2.67,3.6,10.65,10.65,0,0,1,1,4.7v.53a10.1,10.1,0,0,1-3.45,8.06,12.47,12.47,0,0,1-8.51,3,11.74,11.74,0,0,1-10.35-5.5V88.77a11.93,11.93,0,0,0,4.08,4.94,11.39,11.39,0,0,0,6.7,1.89A10.21,10.21,0,0,0,298.3,93a8.63,8.63,0,0,0,2.93-6.83v-.32A9,9,0,0,0,299.84,81a11.92,11.92,0,0,0-3.47-3.63q-2.07-1.41-4.53-3t-4.54-2.88a12.11,12.11,0,0,1-3.47-3.37,7.69,7.69,0,0,1-1.38-4.43v-.37a7,7,0,0,1,2.4-5.71,9,9,0,0,1,5.92-2,9.42,9.42,0,0,1,7.79,3.63V62A9.28,9.28,0,0,0,295.23,58.51Z"/><path class="cls-2" d="M350.65,96.4V91.55h-18l19.8-35.7V89.79h4.64v1.76h-4.64V96.4Zm0-6.61V62L335.23,89.79Z"/><path class="cls-2" d="M193.69,113.11a6.33,6.33,0,0,0-3.36-.92,4.63,4.63,0,0,0-3.17,1.16,4,4,0,0,0-1.31,3.18v.19c0,1.59.88,3,2.66,4.37a30,30,0,0,0,2.56,1.65c1,.54,1.9,1.13,2.85,1.75a21.32,21.32,0,0,1,2.58,2,8.12,8.12,0,0,1,1.9,2.57,7.44,7.44,0,0,1,.75,3.34v.38a7.2,7.2,0,0,1-2.46,5.74,8.9,8.9,0,0,1-6.06,2.13,8.39,8.39,0,0,1-7.37-3.92v-2a8.55,8.55,0,0,0,2.91,3.52,8.09,8.09,0,0,0,4.77,1.35,7.27,7.27,0,0,0,4.94-1.83,6.12,6.12,0,0,0,2.09-4.86v-.23a6.41,6.41,0,0,0-1-3.48,8.58,8.58,0,0,0-2.47-2.58c-1-.67-2.07-1.38-3.23-2.11s-2.24-1.42-3.23-2.05a8.56,8.56,0,0,1-2.47-2.4,5.44,5.44,0,0,1-1-3.15v-.27a5,5,0,0,1,1.71-4.06,6.42,6.42,0,0,1,4.22-1.41,6.7,6.7,0,0,1,5.55,2.59v1.93A6.58,6.58,0,0,0,193.69,113.11Z"/><path class="cls-2" d="M220.35,140.58H220a8.44,8.44,0,0,1-6.27-2.7,8.78,8.78,0,0,1-2.62-6.33,8.54,8.54,0,0,1,2.66-6.27,8.91,8.91,0,0,1,6.53-2.64,8.71,8.71,0,0,1,6.61,2.93v1.94a8.8,8.8,0,0,0-3-2.78,7.91,7.91,0,1,0,0,13.76,8.61,8.61,0,0,0,3-2.81v2A8.49,8.49,0,0,1,220.35,140.58Z"/><path class="cls-2" d="M240.49,140.09h-1.22V111.62h1.22v14.67q1.9-3.72,6.57-3.72a7.48,7.48,0,0,1,7.56,7.56v10h-1.21v-10a6.36,6.36,0,0,0-1.86-4.58,6,6,0,0,0-4.49-1.92,6.38,6.38,0,0,0-4.6,1.94,6.2,6.2,0,0,0-2,4.56Z"/><path class="cls-2" d="M269.6,137.79a8.82,8.82,0,0,1-2.62-6.33,8.48,8.48,0,0,1,2.66-6.25,9.05,9.05,0,0,1,12.78,0,8.57,8.57,0,0,1,2.64,6.27,8.87,8.87,0,0,1-2.58,6.33,8.34,8.34,0,0,1-6.27,2.69h-.34A8.41,8.41,0,0,1,269.6,137.79Zm14.25-6.24a7.7,7.7,0,0,0-2.3-5.56,7.4,7.4,0,0,0-5.49-2.36,7.48,7.48,0,0,0-5.53,2.38,7.67,7.67,0,0,0-2.34,5.56,8,8,0,0,0,7.89,7.87,7.39,7.39,0,0,0,5.49-2.34A7.67,7.67,0,0,0,283.85,131.55Z"/><path class="cls-2" d="M299.46,137.79a8.86,8.86,0,0,1-2.62-6.33,8.52,8.52,0,0,1,2.66-6.25,9.07,9.07,0,0,1,12.79,0,8.57,8.57,0,0,1,2.64,6.27,8.87,8.87,0,0,1-2.58,6.33,8.37,8.37,0,0,1-6.27,2.69h-.35A8.41,8.41,0,0,1,299.46,137.79Zm14.25-6.24a7.69,7.69,0,0,0-2.29-5.56,7.59,7.59,0,0,0-11,0,7.67,7.67,0,0,0-2.34,5.56,8,8,0,0,0,7.88,7.87,7.39,7.39,0,0,0,5.49-2.34A7.67,7.67,0,0,0,313.71,131.55Z"/><path class="cls-2" d="M334.16,139.36v1.07a6.42,6.42,0,0,1-4.6-1.81,6.06,6.06,0,0,1-1.9-4.61V111.59h1.22V134a5.14,5.14,0,0,0,1.54,3.83A5.08,5.08,0,0,0,334.16,139.36Z"/><path class="cls-2" d="M350,123.59a2.64,2.64,0,0,0-1.75.65,2,2,0,0,0-.76,1.6,2.36,2.36,0,0,0,.86,1.74,10.26,10.26,0,0,0,2.05,1.47c.8.44,1.6.92,2.41,1.42a7.22,7.22,0,0,1,2.07,1.94,4.48,4.48,0,0,1,.86,2.7,5,5,0,0,1-1.69,3.82A5.78,5.78,0,0,1,350,140.5a6.23,6.23,0,0,1-2.83-.66,4.36,4.36,0,0,1-1.92-1.77v-1.82a4.83,4.83,0,0,0,4.64,3.19,4.77,4.77,0,0,0,3.32-1.22,3.59,3.59,0,0,0,1.35-2.71,3.81,3.81,0,0,0-.85-2.53,8,8,0,0,0-2.07-1.75l-2.42-1.42a8.12,8.12,0,0,1-2.05-1.71,3.53,3.53,0,0,1-.85-2.36,2.9,2.9,0,0,1,1.08-2.28,4.12,4.12,0,0,1,2.79-.93,3.82,3.82,0,0,1,2.93,1.33v1.56A3.6,3.6,0,0,0,350,123.59Z"/><path class="cls-3" d="M142.22,48.64a81.32,81.32,0,0,1,20.91,54.51h-3.85a77.47,77.47,0,0,0-19.92-51.94Zm-10.9-17.2,11.27-2.36a1.55,1.55,0,0,1,1.7,2.21L133.36,53.06a1.54,1.54,0,0,1-1.36.85h0a1.57,1.57,0,0,1-1.37-.81l-5.2-9.72a1.52,1.52,0,0,1,0-1.42l4.86-9.69A1.56,1.56,0,0,1,131.32,31.44Zm1.37,2.89-4.17,8.3L131.94,49l8.13-16.23ZM163.22,136a2,2,0,0,1-1.47,1.82L82.36,160.29a2.1,2.1,0,0,1-.56.07,2.18,2.18,0,0,1-.55-.07L1.48,137.82a2,2,0,0,1-.27-3.8l21.1-9.31L1.48,118.84A2,2,0,0,1,0,117a2,2,0,0,1,1.2-2l32.58-14.36A6.45,6.45,0,0,1,36,89V71.58a2,2,0,0,1,1-1.72l18.2-11.23a2,2,0,0,1,2.41.21l.07-11.62a6.44,6.44,0,1,1,8.73-6A6.29,6.29,0,0,1,66,43.4a6.47,6.47,0,0,1-4.27,4l-.1,15.1L70,70.08a2,2,0,0,1,.66,1.53L70.27,101a2,2,0,0,1-2,2H59.34a2,2,0,0,1-1.44-.59,2.11,2.11,0,0,1-.58-1.45l.24-36.73L56,62.87l-16,9.84V89.43a6.46,6.46,0,0,1,0,11.69,2,2,0,0,1-1.2,1.75L8,116.47l73.8,20.78,73.32-20.74L124,103.27a2,2,0,0,1-1.23-2l.35-5.59A6.45,6.45,0,0,1,119.07,88l-10.41-5.21-.43,18.25a2,2,0,0,1-2,2h-7a2,2,0,0,1-2-2.09L98,76.16a2,2,0,0,1,2.94-1.74l3.84,1.92.15-6.22h-16V101.4a2,2,0,0,1-2,2H80.26a2,2,0,0,1-2-2V68.1a2,2,0,0,1,2-2h4.56V43.4H69.22a6.29,6.29,0,0,0,.4-2.22,6.48,6.48,0,0,0-.27-1.83H86.84a2,2,0,0,1,2,2v24.7H107a2,2,0,0,1,1.45.61,2,2,0,0,1,.58,1.46l-.25,10.2,12.52,6.26a6.46,6.46,0,1,1,5.89,11.22l-.26,4.28L162,115a2,2,0,0,1-.25,3.81l-21.3,6L162,134A2,2,0,0,1,163.22,136ZM84.82,70.12H82.28V99.38h2.54Zm19.83,10.7-2.72-1.36L101.33,99h2.9Zm18.7,11.35a3.23,3.23,0,0,0,5.21-2.55,3.23,3.23,0,0,0-3.23-3.23,1.9,1.9,0,0,0-.41,0,3.2,3.2,0,0,0-2.81,3.11.25.25,0,0,0,0,.08A3.22,3.22,0,0,0,123.35,92.17ZM61.59,67.92,61.38,99h4.87l.35-26.52Zm-3.9-24.41a3.26,3.26,0,0,0,2.24.9,3.3,3.3,0,0,0,1.81-.55,3,3,0,0,0,.53-.46,3.23,3.23,0,1,0-4.58.11ZM34.09,95.28A3.23,3.23,0,0,0,36,98.22a3,3,0,0,0,1.3.29A3.23,3.23,0,0,0,40.07,97a3.23,3.23,0,0,0,0-3.39,3.22,3.22,0,0,0-2.75-1.53,3,3,0,0,0-1.3.28A3.23,3.23,0,0,0,34.09,95.28Zm121,40.21-20.27-8.6.21-.5-52.7,14.92a2.61,2.61,0,0,1-.56.08,2.81,2.81,0,0,1-.55-.08L28.43,126.43,8,135.45l73.8,20.79Zm-73.51-110a78.62,78.62,0,0,1,16.72,1.8l.83-3.76a82.46,82.46,0,0,0-17.55-1.89A81.61,81.61,0,0,0,.1,103.15H4A77.75,77.75,0,0,1,81.61,25.48Zm19.64,4.36,4.86-9.68a1.52,1.52,0,0,1,.89-.78,1.54,1.54,0,0,1,1.19.08L115,22.87,117.7,1.36a1.51,1.51,0,0,1,.81-1.17,1.55,1.55,0,0,1,1.42,0l16.28,8.17a1.55,1.55,0,0,1,.42,2.47l-15,15.42,7.2,3.62a1.53,1.53,0,0,1,.69,2.07l-4.86,9.7a1.59,1.59,0,0,1-.9.77,1.62,1.62,0,0,1-.49.08,1.41,1.41,0,0,1-.69-.17l-7.26-3.64-5.12,22.54a1.54,1.54,0,0,1-.85,1.06,1.63,1.63,0,0,1-.66.14,1.52,1.52,0,0,1-.69-.16L92.66,54.52a1.55,1.55,0,0,1-.42-2.46l16.32-16.81-6.63-3.32A1.55,1.55,0,0,1,101.25,29.84Zm16.67-5.49.83.41,14.18-14.6L120.49,3.92Zm-1.87,11.19,6.56,3.29,3.47-6.92-6.69-3.36-2.3,2.38,0,.1,0,.15Zm-3.56,1.68-1-.51-15.53,16,11.71,5.87Zm-7.78-7.37,6.12,3.07,3.31-3.42.43-3.37-6.39-3.21Z"/></g></g></svg>